<?xml version="1.0" standalone="no"?>
<!DOCTYPE svg PUBLIC "-//W3C//DTD SVG 20010904//EN"
 "http://www.w3.org/TR/2001/REC-SVG-20010904/DTD/svg10.dtd">
<svg version="1.0" xmlns="http://www.w3.org/2000/svg"
 width="500.000000pt" height="500.000000pt" viewBox="0 0 500.000000 500.000000"
 preserveAspectRatio="xMidYMid meet">

<g transform="translate(0.000000,500.000000) scale(0.100000,-0.100000)"
fill="#000000" stroke="none">
<path d="M2410 4327 c-69 -37 -186 -101 -195 -107 -9 -7 -208 -123 -290 -170
-36 -21 -148 -85 -440 -255 -121 -71 -278 -161 -350 -202 -152 -87 -177 -108
-205 -177 -20 -51 -20 -60 -18 -876 3 -823 3 -825 25 -865 28 -53 56 -78 144
-129 268 -154 431 -249 544 -316 181 -107 439 -257 505 -293 30 -16 66 -38 80
-47 14 -9 68 -41 120 -71 92 -52 98 -54 170 -54 75 0 75 0 194 70 66 39 138
81 160 93 89 51 378 219 511 297 77 45 190 111 250 145 397 227 428 250 460
339 22 64 23 1627 0 1690 -30 85 -51 102 -357 277 -203 117 -358 206 -483 279
-663 387 -658 385 -738 385 -34 0 -73 -6 -87 -13z m306 -119 c82 -47 201 -116
264 -153 63 -37 171 -99 240 -138 69 -38 152 -87 185 -107 33 -20 130 -77 215
-125 306 -174 365 -212 396 -256 l29 -42 0 -833 0 -832 -30 -44 c-35 -50 -21
-40 -315 -210 -124 -71 -250 -144 -280 -162 -30 -18 -98 -58 -150 -88 -52 -30
-229 -133 -393 -228 -164 -95 -315 -177 -337 -182 -28 -7 -53 -7 -84 1 -39 9
-267 138 -766 431 -91 53 -271 158 -400 232 -129 75 -249 148 -267 162 -17 15
-41 46 -52 70 -21 42 -21 53 -21 852 0 765 1 811 19 849 10 22 29 49 42 61 23
20 148 95 289 174 36 20 130 75 210 121 80 47 165 97 190 111 25 13 101 58
170 98 69 40 166 97 215 125 50 28 144 83 210 122 139 82 142 82 216 79 50 -2
72 -11 205 -88z"/>
<path d="M2465 4223 c-11 -3 -67 -33 -125 -67 -58 -35 -130 -76 -160 -93 -30
-16 -122 -70 -205 -118 -150 -88 -447 -260 -625 -363 -274 -158 -284 -165
-307 -212 l-23 -44 1 -711 c0 -390 4 -747 7 -792 9 -100 18 -112 155 -191 54
-31 148 -86 210 -122 62 -36 147 -86 190 -110 42 -25 130 -76 195 -114 64 -37
146 -85 182 -106 36 -21 160 -93 275 -160 150 -87 222 -124 252 -127 46 -6 59
0 318 152 246 145 377 221 510 297 488 281 592 342 609 357 47 42 46 20 46
863 0 752 -1 795 -18 823 -11 18 -53 50 -103 79 -46 27 -138 80 -204 119 -66
38 -176 102 -245 142 -69 40 -267 155 -440 255 -173 100 -335 195 -360 210
-46 29 -100 42 -135 33z m150 -91 c44 -25 109 -62 145 -82 36 -21 117 -68 180
-105 63 -37 131 -77 150 -87 19 -11 136 -79 260 -151 124 -72 286 -165 360
-208 190 -109 193 -111 208 -141 9 -20 12 -121 10 -433 l-3 -407 -65 49 c-142
105 -199 155 -285 249 -179 196 -180 198 -198 188 -9 -5 -50 -42 -92 -83 l-75
-74 -52 46 c-167 145 -288 277 -401 436 -32 44 -62 81 -66 81 -5 0 -44 -35
-88 -77 -134 -133 -334 -309 -474 -420 -13 -10 -26 0 -81 65 -37 42 -76 87
-88 100 l-21 23 -64 -58 c-239 -218 -363 -323 -381 -323 -6 0 -30 21 -53 46
-48 53 -36 58 -156 -58 -86 -82 -202 -178 -216 -178 -5 0 -9 176 -9 393 0 434
1 441 65 480 59 36 223 132 430 250 116 66 221 127 235 137 14 10 61 38 105
62 80 45 331 190 480 278 120 71 120 71 240 2z m91 -872 l24 -71 -25 -37 c-14
-20 -25 -43 -25 -52 0 -24 166 -292 202 -326 18 -17 54 -47 80 -66 l47 -35
-24 -23 -24 -22 -35 27 c-20 15 -52 49 -72 76 -20 27 -42 49 -49 49 -23 0 22
-90 71 -140 l44 -45 -138 -115 c-252 -210 -527 -447 -542 -466 -15 -18 -14
-18 15 0 141 89 696 541 944 769 94 86 175 157 179 157 4 0 16 -27 26 -61 15
-53 16 -63 3 -77 -8 -9 -17 -44 -20 -77 -6 -56 -4 -64 28 -115 19 -30 35 -66
35 -80 0 -50 120 -166 228 -220 42 -21 37 -1 -9 37 -81 67 -147 140 -153 169
-4 16 -27 63 -51 104 -44 73 -53 102 -37 128 6 8 21 -8 50 -50 22 -35 67 -90
99 -122 55 -56 193 -166 209 -166 4 0 -29 37 -74 83 -111 112 -153 168 -212
280 -28 54 -49 97 -47 97 2 0 55 -52 118 -116 73 -74 158 -146 236 -202 l123
-87 0 -271 0 -272 -25 -16 c-32 -21 -40 -20 -59 8 l-16 25 35 -6 c47 -8 45 8
-5 56 -46 43 -51 60 -16 54 32 -7 43 15 17 33 -19 14 -51 63 -51 80 0 3 7 4
15 1 23 -10 27 11 6 32 -19 19 -41 79 -41 114 0 34 -18 16 -25 -25 -9 -53 -29
-94 -50 -102 -22 -8 -7 -29 16 -23 11 3 19 3 19 0 0 -15 -37 -63 -57 -74 -34
-18 -30 -42 7 -37 20 3 30 0 30 -8 0 -13 -50 -59 -71 -66 -8 -3 -10 -11 -6
-22 6 -14 14 -17 37 -12 30 6 30 5 14 -19 -9 -14 -31 -34 -50 -46 -19 -11 -34
-24 -34 -29 0 -14 39 -22 68 -15 l27 6 -31 -32 c-30 -29 -33 -30 -50 -15 -11
9 -34 28 -51 42 -44 34 -43 51 2 46 27 -3 35 -1 35 12 0 9 -4 16 -10 16 -12 0
-80 68 -80 80 0 5 14 7 30 4 23 -5 30 -3 30 9 0 9 -9 21 -20 27 -17 9 -50 58
-50 75 0 3 9 5 20 5 11 0 20 5 20 10 0 6 -4 10 -9 10 -14 0 -51 82 -51 113 0
14 -4 28 -9 31 -9 6 -21 -26 -21 -60 0 -12 -11 -38 -25 -58 -30 -44 -30 -46
-6 -46 28 0 16 -34 -26 -75 -36 -35 -31 -52 13 -41 25 7 25 6 9 -23 -8 -16
-28 -38 -45 -48 -45 -26 -40 -47 10 -40 l40 5 -16 -26 c-8 -15 -33 -40 -55
-55 -46 -34 -42 -51 12 -44 l38 5 -14 -28 c-16 -31 -56 -63 -93 -75 -16 -5
-22 -12 -17 -23 4 -11 -3 -8 -20 8 l-27 25 36 3 c20 2 36 7 36 13 0 5 -18 25
-40 45 -43 39 -56 73 -20 54 21 -11 40 -6 40 11 0 5 -16 23 -35 40 -39 35 -45
59 -15 59 25 0 25 8 1 34 -21 24 -41 78 -41 112 0 44 -16 24 -28 -34 -8 -38
-21 -67 -37 -82 -27 -25 -24 -44 6 -35 31 10 22 -13 -21 -57 -42 -43 -43 -63
-4 -55 13 2 24 0 24 -5 0 -13 -61 -73 -79 -79 -29 -10 0 -31 35 -26 41 7 42 1
8 -34 -29 -30 -27 -31 -101 41 l-37 35 39 5 c43 6 57 25 26 35 -21 6 -71 60
-71 76 0 4 14 6 30 3 23 -5 30 -3 30 9 0 9 -9 21 -20 27 -17 9 -50 58 -50 75
0 3 9 5 20 5 26 0 25 6 -4 41 -14 16 -28 49 -32 74 -9 61 -21 65 -29 11 -7
-47 -38 -106 -55 -106 -5 0 -10 -4 -10 -10 0 -5 11 -10 25 -10 35 0 31 -16
-15 -62 -49 -50 -51 -62 -5 -55 l35 6 -15 -29 c-8 -15 -31 -38 -51 -50 -31
-20 -34 -25 -22 -37 11 -10 21 -11 41 -4 15 6 27 7 27 2 0 -15 -43 -63 -72
-81 -29 -17 -30 -17 -57 9 -37 34 -68 93 -41 76 6 -4 18 -4 26 -1 13 5 11 12
-14 40 -19 22 -32 50 -36 80 -8 50 -26 63 -26 19 0 -31 -32 -107 -49 -117 -19
-12 -12 -29 9 -23 33 8 24 -19 -21 -64 -32 -32 -38 -43 -28 -50 8 -4 24 -5 37
-2 22 5 23 4 13 -14 -6 -12 -27 -34 -47 -50 -45 -36 -39 -58 13 -48 l35 6 -22
-31 c-12 -17 -38 -39 -56 -48 -19 -8 -34 -21 -34 -28 0 -18 33 -26 64 -15 31
13 33 3 5 -33 -20 -25 -87 -66 -108 -66 -15 0 -71 50 -71 64 0 8 12 11 34 8
35 -4 63 17 35 26 -20 7 -89 77 -89 91 0 8 5 9 19 1 23 -12 51 -3 51 16 0 8
-4 14 -9 14 -11 0 -71 61 -71 72 0 4 11 8 25 8 32 0 32 11 -4 49 -16 17 -31
40 -34 51 -4 17 -1 19 19 14 27 -7 32 7 8 27 -21 18 -40 57 -48 102 -8 42 -26
41 -26 -1 0 -33 -35 -112 -50 -112 -5 0 -10 -4 -10 -10 0 -5 9 -10 20 -10 31
0 24 -29 -15 -66 -19 -18 -35 -35 -35 -38 0 -3 14 -6 30 -6 17 0 30 -5 30 -10
0 -18 -48 -60 -68 -60 -22 0 -54 26 -70 57 -16 30 -16 29 22 25 40 -5 60 16
30 32 -24 14 -84 75 -84 86 0 4 18 6 40 3 33 -5 40 -3 40 11 0 9 -4 16 -9 16
-12 0 -81 69 -81 81 0 5 14 6 30 2 24 -4 30 -2 30 11 0 9 -7 19 -15 22 -16 6
-55 64 -55 82 0 5 9 8 20 5 14 -4 20 0 20 11 0 9 -4 16 -10 16 -14 0 -32 38
-46 95 -12 52 -14 50 -34 -27 -7 -26 -21 -55 -31 -64 -24 -22 -24 -34 1 -34
11 0 20 -3 20 -7 0 -15 -37 -64 -59 -79 -32 -23 -26 -37 13 -32 l34 4 -14 -29
c-18 -34 -70 -68 -93 -60 -23 8 -71 54 -71 68 0 7 10 10 24 8 36 -7 44 17 12
40 -14 10 -33 32 -42 48 -14 29 -14 29 12 29 l27 0 -20 23 c-27 29 -39 54 -47
100 -8 44 -26 40 -26 -6 0 -34 -33 -97 -50 -97 -5 0 -10 -4 -10 -10 0 -5 11
-10 24 -10 33 0 24 -31 -20 -70 -43 -37 -44 -54 -4 -48 43 7 38 -14 -15 -59
-25 -20 -45 -41 -45 -46 0 -5 18 -7 40 -5 46 4 48 0 20 -30 -21 -22 -47 -31
-35 -12 3 5 -12 20 -33 34 -33 20 -72 64 -72 80 0 3 15 2 33 -1 45 -7 70 20
35 38 -31 16 -78 60 -78 74 0 7 14 9 35 7 44 -5 49 20 8 42 -16 8 -36 28 -46
45 l-19 32 26 -7 c35 -8 47 21 17 42 -11 8 -28 28 -36 45 -15 27 -14 29 5 29
25 0 25 5 1 39 -11 15 -26 52 -34 82 -15 55 -21 53 -32 -13 -3 -21 -17 -51
-30 -67 -30 -35 -31 -41 -5 -41 30 0 24 -22 -16 -63 -39 -38 -38 -63 2 -53 13
4 24 3 24 -1 -1 -13 -33 -47 -68 -72 -32 -22 -34 -22 -60 -6 -26 17 -61 54
-62 65 0 4 16 4 35 2 46 -5 45 9 -5 57 -44 41 -53 66 -20 56 30 -9 38 22 11
41 -11 8 -28 28 -36 45 -15 29 -15 29 11 29 l26 0 -26 30 c-23 28 -46 86 -46
118 0 6 -4 12 -10 12 -5 0 -10 -12 -10 -27 0 -30 -37 -113 -51 -113 -5 0 -9
-4 -9 -10 0 -5 9 -10 20 -10 30 0 24 -25 -15 -65 -39 -38 -38 -59 1 -49 14 4
24 2 24 -4 0 -17 -49 -70 -70 -77 -33 -10 -12 -37 26 -33 27 3 31 1 24 -12
-13 -24 -43 -48 -65 -52 -20 -3 -20 3 -23 273 l-2 276 107 86 c60 47 130 108
158 136 27 28 53 51 57 51 13 0 21 -71 9 -83 -14 -14 -14 -50 0 -64 7 -7 -3
-23 -37 -55 -26 -25 -43 -48 -37 -51 6 -4 21 2 33 13 24 21 50 27 50 11 0 -11
125 -71 148 -71 11 0 -1 16 -35 48 -29 26 -60 65 -70 87 -9 22 -19 44 -21 48
-2 5 23 -12 56 -37 70 -54 83 -58 45 -16 -32 37 -83 112 -83 123 0 5 31 -20
69 -55 39 -35 83 -71 100 -81 l30 -18 53 48 c59 53 103 102 96 108 -2 2 -35
-21 -73 -51 -39 -31 -73 -58 -77 -60 -9 -6 -108 84 -108 97 0 4 44 43 97 86
54 43 143 121 198 173 82 78 100 91 103 75 2 -11 10 -37 18 -59 13 -35 13 -40
-1 -56 -22 -25 -16 -65 10 -65 12 0 30 -15 44 -35 41 -59 112 -143 155 -183
53 -49 187 -150 192 -144 2 2 -31 37 -73 78 -74 71 -203 230 -203 250 0 5 -11
26 -25 47 -13 20 -32 55 -41 77 -14 35 1 23 110 -92 166 -174 336 -310 431
-348 39 -16 39 -15 -29 47 l-68 63 63 54 c67 56 166 161 152 161 -4 0 -59 -43
-121 -95 -63 -52 -118 -95 -122 -95 -11 0 -120 91 -120 100 0 4 26 29 58 56
132 112 282 269 196 206 -16 -11 -85 -68 -154 -126 -69 -58 -129 -106 -133
-106 -10 0 -117 109 -117 120 0 5 54 52 119 104 66 53 184 156 263 230 79 73
145 132 147 130 2 -2 14 -35 27 -74z m121 -97 c60 -77 215 -233 302 -306 l45
-37 -25 -22 c-13 -11 -43 -39 -66 -61 l-42 -40 -76 64 c-47 39 -86 82 -100
109 -13 25 -44 76 -69 115 -24 38 -43 72 -41 74 3 2 51 -41 108 -95 104 -99
225 -195 181 -143 -33 39 -169 194 -174 199 -3 3 -29 51 -58 107 -73 142 -71
146 15 36z m-1386 -1292 c-14 -24 -69 -71 -85 -71 -12 0 -66 50 -66 62 0 3 12
3 26 0 14 -2 35 0 47 6 12 6 33 13 47 15 14 2 29 5 33 6 4 0 3 -8 -2 -18z
m-23 -123 c-9 -13 -29 -31 -46 -41 -30 -18 -30 -17 -59 8 l-28 26 32 -6 c40
-8 73 2 73 21 0 8 9 14 21 14 20 0 20 -2 7 -22z m2192 4 c0 -5 10 -14 23 -19
l22 -11 -25 -10 c-20 -8 -29 -6 -47 11 -30 27 -29 37 2 37 14 0 25 -4 25 -8z
m-1619 -59 c-12 -23 -51 -58 -72 -66 -11 -3 -28 6 -48 27 -17 17 -31 34 -31
37 0 3 26 5 58 3 33 -1 65 2 73 7 22 14 31 10 20 -8z m-551 -58 c-7 -9 -15
-13 -18 -10 -3 2 1 11 8 20 7 9 15 13 18 10 3 -2 -1 -11 -8 -20z m1958 -34
c-39 -36 -49 -38 -66 -11 -11 18 -10 20 15 20 16 1 39 7 53 15 37 20 36 10 -2
-24z m-1765 -12 c4 -16 2 -16 -24 3 -35 26 -38 42 -5 27 13 -6 26 -20 29 -30z
m1158 -3 c8 -4 28 -2 42 3 15 6 27 7 27 3 0 -11 -60 -82 -70 -82 -13 0 -69 50
-80 71 -9 17 -7 18 27 15 21 -2 45 -7 54 -10z m-898 -33 c4 -7 15 -13 22 -13
8 0 15 6 15 13 0 6 11 17 25 24 34 15 33 -3 -3 -46 l-28 -34 -37 36 c-38 37
-53 72 -19 46 9 -8 21 -20 25 -26z m1148 27 c5 0 8 -6 7 -12 -2 -9 11 -13 40
-12 41 1 42 0 28 -20 -21 -33 -49 -31 -84 5 -35 35 -41 55 -16 45 9 -3 20 -6
25 -6z m-1346 -10 c-3 -5 -16 -10 -28 -9 -21 0 -21 1 -2 9 28 12 37 12 30 0z
m1615 -52 c0 -5 -3 -8 -7 -8 -10 0 -43 32 -43 42 0 11 49 -24 50 -34z m-565
-54 c15 -23 21 -25 58 -19 l42 7 -28 -22 c-24 -19 -32 -21 -51 -11 -24 14 -63
71 -48 71 5 0 17 -12 27 -26z m125 -10 c-18 -21 -24 -10 -9 18 8 14 14 18 17
10 2 -7 -2 -19 -8 -28z m-880 -19 c-21 -26 -31 -16 -13 11 9 15 19 21 21 15 2
-6 -2 -18 -8 -26z m1075 -5 c14 0 16 -3 7 -12 -9 -9 -20 -7 -46 7 -20 11 -38
25 -40 32 -3 7 8 4 27 -7 18 -11 41 -20 52 -20z m-898 5 c38 -8 43 -7 44 3 0
9 40 24 47 17 7 -6 -27 -44 -51 -57 -14 -7 -28 -3 -58 18 -21 15 -39 31 -39
37 0 6 4 6 13 -1 6 -5 27 -13 44 -17z m-287 -7 c0 -6 -6 -5 -15 2 -8 7 -15 14
-15 16 0 2 7 1 15 -2 8 -4 15 -11 15 -16z m1260 2 c0 -5 -5 -10 -11 -10 -5 0
-7 5 -4 10 3 6 8 10 11 10 2 0 4 -4 4 -10z m-355 -118 c-3 -3 -16 5 -28 17
l-22 23 28 -17 c15 -10 25 -20 22 -23z m-195 -87 c-7 -8 -17 -15 -23 -15 -5 0
-2 9 8 20 21 23 35 19 15 -5z m146 -2 c-7 -7 -26 7 -26 19 0 6 6 6 15 -2 9 -7
13 -15 11 -17z m-202 7 c16 0 13 -5 -14 -25 -41 -30 -60 -31 -91 -5 l-24 19
27 1 c15 0 30 5 34 11 3 6 16 8 28 5 11 -3 30 -6 40 -6z"/>
<path d="M2287 3874 c-4 -4 -7 -23 -7 -41 0 -38 23 -42 28 -5 4 25 -11 56 -21
46z"/>
<path d="M2140 3825 c0 -15 34 -55 47 -55 24 0 -14 59 -39 60 -5 0 -8 -2 -8
-5z"/>
<path d="M2397 3800 c-15 -25 -16 -30 -3 -30 14 0 46 36 46 52 0 19 -27 5 -43
-22z"/>
<path d="M2060 3731 c0 -14 50 -42 62 -35 7 4 2 13 -13 25 -26 20 -49 25 -49
10z"/>
<path d="M2231 3721 c-39 -21 -70 -72 -70 -116 -1 -51 38 -106 87 -124 152
-55 244 166 100 240 -46 23 -73 23 -117 0z m94 -35 c39 -17 55 -42 55 -89 0
-76 -105 -113 -156 -54 -50 58 -17 138 64 156 1 1 18 -5 37 -13z"/>
<path d="M2478 3726 c-19 -14 -24 -36 -9 -36 6 0 23 11 38 25 25 22 26 24 8
24 -11 0 -28 -6 -37 -13z"/>
<path d="M2820 3625 c-11 -13 -8 -15 15 -15 17 0 37 -11 56 -31 16 -18 31 -30
32 -28 2 2 11 16 20 32 13 20 25 27 48 27 27 0 30 2 19 15 -15 18 -43 19 -70
3 -16 -10 -24 -10 -40 0 -27 16 -65 15 -80 -3z"/>
<path d="M2033 3613 c-27 -10 -11 -23 27 -23 40 0 53 13 24 24 -18 7 -33 7
-51 -1z"/>
<path d="M2493 3613 c-27 -10 -11 -23 27 -23 40 0 53 13 24 24 -18 7 -33 7
-51 -1z"/>
<path d="M2088 3492 c-30 -18 -36 -32 -15 -32 17 0 57 29 57 41 0 13 -11 11
-42 -9z"/>
<path d="M2455 3501 c-7 -13 34 -41 60 -41 18 1 17 3 -8 25 -30 27 -42 30 -52
16z"/>
<path d="M3053 3453 c-23 -9 -13 -23 16 -23 20 0 37 -9 54 -29 l24 -29 22 29
c15 21 30 29 51 29 37 0 39 17 3 26 -17 5 -37 2 -53 -8 -23 -13 -29 -13 -45
-2 -19 14 -49 17 -72 7z"/>
<path d="M2161 3414 c-23 -29 -27 -44 -12 -44 11 0 51 48 51 61 0 17 -19 9
-39 -17z"/>
<path d="M2387 3434 c-8 -8 31 -64 44 -64 5 0 9 6 9 13 0 17 -44 59 -53 51z"/>
<path d="M2280 3370 c0 -29 4 -40 13 -37 6 2 12 19 12 37 0 18 -6 35 -12 38
-9 2 -13 -9 -13 -38z"/>
<path d="M1550 3385 c-11 -13 -8 -15 14 -15 38 0 64 -16 86 -52 l18 -30 12 23
c19 37 52 59 90 59 33 1 34 1 16 15 -25 19 -76 19 -101 1 -17 -12 -22 -12 -39
0 -27 18 -80 18 -96 -1z"/>
<path d="M2515 3116 c-66 -63 -118 -117 -115 -120 3 -3 21 10 40 27 19 18 70
61 112 95 69 56 98 88 98 106 0 17 -26 -4 -135 -108z"/>
<path d="M1834 2869 c-66 -62 -104 -103 -99 -107 6 -7 133 98 150 124 29 45 8
38 -51 -17z"/>
<path d="M3305 2798 c-51 -43 -85 -78 -85 -85 0 -2 14 4 31 14 50 29 112 88
108 102 -3 8 -22 -3 -54 -31z"/>
<path d="M1917 2768 c-9 -27 97 -211 153 -268 50 -50 155 -118 166 -108 2 2
-35 42 -82 87 -51 51 -95 104 -111 135 -68 137 -113 191 -126 154z"/>
<path d="M1320 2625 c-30 -30 -50 -55 -44 -55 17 0 107 85 103 98 -2 7 -27
-11 -59 -43z"/>
<path d="M3144 2613 c-71 -48 -511 -443 -464 -418 15 9 91 65 100 75 3 3 61
50 130 105 199 159 360 322 234 238z"/>
<path d="M1895 2476 c-22 -22 -82 -80 -132 -128 -51 -49 -88 -88 -84 -88 14 0
157 109 219 168 21 19 28 15 66 -42 52 -79 115 -130 186 -151 17 -5 2 15 -52
65 -62 57 -85 87 -113 146 -19 41 -39 73 -43 73 -4 -1 -25 -20 -47 -43z"/>
<path d="M3307 2349 c-59 -56 -106 -104 -103 -106 11 -12 231 165 231 185 0
33 -25 18 -128 -79z"/>
</g>
</svg>
